<svg width="25" height="25" viewBox="0 0 25 25" fill="none" xmlns="http://www.w3.org/2000/svg">
<path d="M6.3733 2.01372C5.2412 3.16679 5.2412 5.03265 6.39427 6.18572L8.91004 8.7015C11.2791 11.0705 11.2791 14.928 8.91004 17.2971L4.29779 12.6848C3.11327 11.5003 2.51578 9.93842 2.51578 8.38702C2.51578 6.83563 3.11327 5.27375 4.29779 4.08924L6.34185 2.04517C6.35234 2.03469 6.36282 2.02421 6.3733 2.01372Z" fill="#5D5FEF" stroke="white" stroke-width="2" stroke-miterlimit="10"/>
<path d="M8.38581 8.17627L6.39415 6.18462C5.24108 5.03155 5.2306 3.17617 6.37318 2.01262C7.50528 0.901485 9.30826 0.922449 10.4299 2.04407C10.9959 2.61012 11.2789 3.35437 11.2789 4.08813C11.2789 4.8219 10.9959 5.56615 10.4299 6.1322L9.95817 6.60391" fill="#5D5FEF"/>
<path d="M8.38581 8.17627L6.39415 6.18462C5.24108 5.03155 5.2306 3.17617 6.37318 2.01262C7.50528 0.901485 9.30826 0.922449 10.4299 2.04407C10.9959 2.61012 11.2789 3.35437 11.2789 4.08813C11.2789 4.8219 10.9959 5.56615 10.4299 6.1322L9.95817 6.60391" stroke="white" stroke-width="2" stroke-miterlimit="10"/>
<path d="M18.2705 22.6109C19.4026 21.4578 19.4026 19.592 18.2496 18.4389L15.7338 15.9231C13.3648 13.5541 13.3648 9.69659 15.7338 7.32757L20.346 11.9398C21.5305 13.1243 22.128 14.6862 22.128 16.2376C22.128 17.789 21.5305 19.3509 20.346 20.5354L18.302 22.5795C18.281 22.6004 18.2705 22.6109 18.2705 22.6109Z" fill="#5D5FEF" stroke="white" stroke-width="2" stroke-miterlimit="10"/>
<path d="M16.247 16.4577L18.2386 18.4494C19.3917 19.6024 19.4022 21.4578 18.2596 22.6214C17.1275 23.7325 15.3245 23.7115 14.2029 22.5899C13.6368 22.0239 13.3538 21.2796 13.3538 20.5458C13.3538 19.8121 13.6368 19.0678 14.2029 18.5018L14.6851 18.0196" fill="#5D5FEF"/>
<path d="M16.247 16.4577L18.2386 18.4494C19.3917 19.6024 19.4022 21.4578 18.2596 22.6214C17.1275 23.7325 15.3245 23.7115 14.2029 22.5899C13.6368 22.0239 13.3538 21.2796 13.3538 20.5458C13.3538 19.8121 13.6368 19.0678 14.2029 18.5018L14.6851 18.0196" stroke="white" stroke-width="2" stroke-miterlimit="10"/>
</svg>
